<?xml version="1.0" encoding="UTF-8"?>
<!DOCTYPE svg PUBLIC "-//W3C//DTD SVG 1.1//EN" "http://www.w3.org/Graphics/SVG/1.1/DTD/svg11.dtd">
<svg xmlns="http://www.w3.org/2000/svg" version="1.1" width="1000px" height="1000px" style="shape-rendering:geometricPrecision; text-rendering:geometricPrecision; image-rendering:optimizeQuality; fill-rule:evenodd; clip-rule:evenodd" xmlns:xlink="http://www.w3.org/1999/xlink">
<g><path style="opacity:0.997" fill="#0c0904" d="M 471.5,-0.5 C 492.167,-0.5 512.833,-0.5 533.5,-0.5C 696.158,13.3852 824.658,86.3852 919,218.5C 959.616,278.838 986.45,344.838 999.5,416.5C 999.5,473.833 999.5,531.167 999.5,588.5C 968.081,747.025 882.415,866.192 742.5,946C 693.804,971.731 642.471,989.564 588.5,999.5C 531.167,999.5 473.833,999.5 416.5,999.5C 269.853,970.934 156.02,894.267 75,769.5C 30.8658,697.264 5.69909,618.931 -0.5,534.5C -0.5,513.167 -0.5,491.833 -0.5,470.5C 13.607,308.724 86.2736,180.891 217.5,87C 294.314,35.2279 378.981,6.06123 471.5,-0.5 Z"/></g>
<g><path style="opacity:1" fill="#b6b6b3" d="M 86.5,252.5 C 104.993,251.503 123.659,251.17 142.5,251.5C 142.5,254.5 142.5,257.5 142.5,260.5C 134.833,260.5 127.167,260.5 119.5,260.5C 126.648,259.508 133.981,259.175 141.5,259.5C 141.5,257.167 141.5,254.833 141.5,252.5C 123.167,252.5 104.833,252.5 86.5,252.5 Z"/></g>
<g><path style="opacity:1" fill="#fdfdfd" d="M 86.5,252.5 C 104.833,252.5 123.167,252.5 141.5,252.5C 141.5,254.833 141.5,257.167 141.5,259.5C 133.981,259.175 126.648,259.508 119.5,260.5C 118.503,279.659 118.17,298.993 118.5,318.5C 115.5,318.5 112.5,318.5 109.5,318.5C 109.5,318.167 109.5,317.833 109.5,317.5C 110.497,298.341 110.83,279.007 110.5,259.5C 102.5,259.5 94.5,259.5 86.5,259.5C 85.1667,257.167 85.1667,254.833 86.5,252.5 Z"/></g>
<g><path style="opacity:1" fill="#fbfbfa" d="M 173.5,252.5 C 173.5,262.167 173.5,271.833 173.5,281.5C 186.833,281.5 200.167,281.5 213.5,281.5C 213.5,271.833 213.5,262.167 213.5,252.5C 216.5,252.5 219.5,252.5 222.5,252.5C 222.5,274.5 222.5,296.5 222.5,318.5C 219.5,318.5 216.5,318.5 213.5,318.5C 213.5,308.833 213.5,299.167 213.5,289.5C 200.167,289.5 186.833,289.5 173.5,289.5C 173.5,299.5 173.5,309.5 173.5,319.5C 170.5,319.5 167.5,319.5 164.5,319.5C 164.5,297.167 164.5,274.833 164.5,252.5C 167.5,252.5 170.5,252.5 173.5,252.5 Z"/></g>
<g><path style="opacity:1" fill="#fbfbfb" d="M 262.5,260.5 C 262.176,267.354 262.509,274.021 263.5,280.5C 273.5,280.5 283.5,280.5 293.5,280.5C 293.5,283.5 293.5,286.5 293.5,289.5C 283.5,289.5 273.5,289.5 263.5,289.5C 262.167,296.5 262.167,303.5 263.5,310.5C 274.654,311.495 285.988,311.828 297.5,311.5C 297.5,313.833 297.5,316.167 297.5,318.5C 282.833,318.5 268.167,318.5 253.5,318.5C 253.5,296.5 253.5,274.5 253.5,252.5C 268.167,252.5 282.833,252.5 297.5,252.5C 297.5,254.833 297.5,257.167 297.5,259.5C 285.655,259.172 273.988,259.505 262.5,260.5 Z"/></g>
<g><path style="opacity:1" fill="#c3c3c2" d="M 213.5,252.5 C 216.625,251.521 219.958,251.187 223.5,251.5C 223.5,274.167 223.5,296.833 223.5,319.5C 219.958,319.813 216.625,319.479 213.5,318.5C 216.5,318.5 219.5,318.5 222.5,318.5C 222.5,296.5 222.5,274.5 222.5,252.5C 219.5,252.5 216.5,252.5 213.5,252.5 Z"/></g>
<g><path style="opacity:1" fill="#aeada9" d="M 173.5,251.5 C 173.5,251.833 173.5,252.167 173.5,252.5C 170.5,252.5 167.5,252.5 164.5,252.5C 164.5,274.833 164.5,297.167 164.5,319.5C 163.503,297.006 163.169,274.339 163.5,251.5C 166.833,251.5 170.167,251.5 173.5,251.5 Z"/></g>
<g><path style="opacity:1" fill="#b4b4b1" d="M 297.5,260.5 C 285.833,260.5 274.167,260.5 262.5,260.5C 273.988,259.505 285.655,259.172 297.5,259.5C 297.5,257.167 297.5,254.833 297.5,252.5C 282.833,252.5 268.167,252.5 253.5,252.5C 253.5,274.5 253.5,296.5 253.5,318.5C 253.5,318.833 253.5,319.167 253.5,319.5C 252.503,297.006 252.169,274.339 252.5,251.5C 267.833,251.5 283.167,251.5 298.5,251.5C 298.81,254.713 298.477,257.713 297.5,260.5 Z"/></g>
<g><path style="opacity:1" fill="#dddddc" d="M 86.5,260.5 C 86.5,260.167 86.5,259.833 86.5,259.5C 94.5,259.5 102.5,259.5 110.5,259.5C 110.83,279.007 110.497,298.341 109.5,317.5C 109.5,298.5 109.5,279.5 109.5,260.5C 101.833,260.5 94.1667,260.5 86.5,260.5 Z"/></g>
<g><path style="opacity:1" fill="#676765" d="M 86.5,260.5 C 94.1667,260.5 101.833,260.5 109.5,260.5C 109.5,279.5 109.5,298.5 109.5,317.5C 109.5,317.833 109.5,318.167 109.5,318.5C 108.503,299.674 108.17,280.674 108.5,261.5C 100.981,261.825 93.6476,261.492 86.5,260.5 Z"/></g>
<g><path style="opacity:1" fill="#adaca8" d="M 119.5,260.5 C 119.5,280.167 119.5,299.833 119.5,319.5C 115.958,319.813 112.625,319.479 109.5,318.5C 112.5,318.5 115.5,318.5 118.5,318.5C 118.17,298.993 118.503,279.659 119.5,260.5 Z"/></g>
<g><path style="opacity:1" fill="#676765" d="M 262.5,260.5 C 274.167,260.5 285.833,260.5 297.5,260.5C 286.346,261.495 275.012,261.828 263.5,261.5C 263.5,267.833 263.5,274.167 263.5,280.5C 262.509,274.021 262.176,267.354 262.5,260.5 Z"/></g>
<g><path style="opacity:1" fill="#878685" d="M 173.5,251.5 C 174.494,260.986 174.827,270.652 174.5,280.5C 187.167,280.5 199.833,280.5 212.5,280.5C 212.173,270.985 212.506,261.652 213.5,252.5C 213.5,262.167 213.5,271.833 213.5,281.5C 200.167,281.5 186.833,281.5 173.5,281.5C 173.5,271.833 173.5,262.167 173.5,252.5C 173.5,252.167 173.5,251.833 173.5,251.5 Z"/></g>
<g><path style="opacity:1" fill="#61615e" d="M 213.5,318.5 C 212.506,309.348 212.173,300.015 212.5,290.5C 199.833,290.5 187.167,290.5 174.5,290.5C 174.827,300.348 174.494,310.014 173.5,319.5C 173.5,309.5 173.5,299.5 173.5,289.5C 186.833,289.5 200.167,289.5 213.5,289.5C 213.5,299.167 213.5,308.833 213.5,318.5 Z"/></g>
<g><path style="opacity:1" fill="#454544" d="M 263.5,289.5 C 263.5,296.167 263.5,302.833 263.5,309.5C 275.012,309.172 286.346,309.505 297.5,310.5C 286.167,310.5 274.833,310.5 263.5,310.5C 262.167,303.5 262.167,296.5 263.5,289.5 Z"/></g>
<g><path style="opacity:1" fill="#c2c1c0" d="M 263.5,310.5 C 274.833,310.5 286.167,310.5 297.5,310.5C 298.477,313.287 298.81,316.287 298.5,319.5C 283.5,319.5 268.5,319.5 253.5,319.5C 253.5,319.167 253.5,318.833 253.5,318.5C 268.167,318.5 282.833,318.5 297.5,318.5C 297.5,316.167 297.5,313.833 297.5,311.5C 285.988,311.828 274.654,311.495 263.5,310.5 Z"/></g>
<g><path style="opacity:1" fill="#161616" d="M 315.5,378.5 C 305.472,370.471 294.472,364.138 282.5,359.5C 282.027,358.094 281.027,357.427 279.5,357.5C 270.637,354.544 261.637,352.21 252.5,350.5C 248.382,349.291 244.049,348.624 239.5,348.5C 227.322,348.172 215.322,348.505 203.5,349.5C 199.511,349.116 195.845,349.783 192.5,351.5C 189.461,352.01 186.461,352.677 183.5,353.5C 181.302,353.12 179.635,353.787 178.5,355.5C 177.833,355.5 177.167,355.5 176.5,355.5C 172.064,356.414 168.064,358.081 164.5,360.5C 152.826,365.181 142.16,371.515 132.5,379.5C 132.297,377.61 132.963,376.11 134.5,375C 173.609,347.784 216.609,339.45 263.5,350C 278.321,354.052 292.321,360.052 305.5,368C 308.667,370.5 311.833,373 315,375.5C 315.483,376.448 315.649,377.448 315.5,378.5 Z"/></g>
<g><path style="opacity:1" fill="#fdfdfc" d="M 239.5,348.5 C 243.545,350.177 247.878,350.844 252.5,350.5C 261.637,352.21 270.637,354.544 279.5,357.5C 279.973,358.906 280.973,359.573 282.5,359.5C 294.472,364.138 305.472,370.471 315.5,378.5C 328.017,387.679 338.017,399.013 345.5,412.5C 345.427,414.027 346.094,415.027 347.5,415.5C 355.986,429.286 361.319,444.286 363.5,460.5C 363.198,464.79 363.864,468.79 365.5,472.5C 366.28,489.687 364.947,506.687 361.5,523.5C 359.926,525.102 359.259,527.102 359.5,529.5C 358.545,531.746 357.878,534.079 357.5,536.5C 355.896,537.287 355.229,538.62 355.5,540.5C 351.104,551.554 345.437,561.888 338.5,571.5C 318.842,595.83 293.842,611.83 263.5,619.5C 258.55,619.77 253.883,620.77 249.5,622.5C 240.56,623.855 231.56,624.522 222.5,624.5C 216.011,624.713 209.677,624.046 203.5,622.5C 199.433,620.946 195.1,620.28 190.5,620.5C 163.59,615.215 140.59,602.882 121.5,583.5C 117.126,579.128 113.126,574.461 109.5,569.5C 102.622,561.08 97.2882,551.746 93.5,541.5C 93.7709,539.62 93.1042,538.287 91.5,537.5C 88.625,530.077 86.625,522.41 85.5,514.5C 83.4081,497.868 83.0747,481.202 84.5,464.5C 85.1495,462.565 85.4828,460.565 85.5,458.5C 87.8828,445.858 91.8828,433.858 97.5,422.5C 98.9063,422.027 99.573,421.027 99.5,419.5C 100.045,417.407 100.878,415.407 102,413.5C 106.176,407.804 110.343,402.137 114.5,396.5C 119.843,390.157 125.843,384.491 132.5,379.5C 142.16,371.515 152.826,365.181 164.5,360.5C 168.936,359.586 172.936,357.919 176.5,355.5C 177.167,355.5 177.833,355.5 178.5,355.5C 180.403,355.204 182.07,354.537 183.5,353.5C 186.461,352.677 189.461,352.01 192.5,351.5C 196.36,351.192 200.026,350.525 203.5,349.5C 215.322,348.505 227.322,348.172 239.5,348.5 Z"/></g>
<g><path style="opacity:1" fill="#90908e" d="M 239.5,348.5 C 244.049,348.624 248.382,349.291 252.5,350.5C 247.878,350.844 243.545,350.177 239.5,348.5 Z"/></g>
<g><path style="opacity:1" fill="#7a7a79" d="M 203.5,349.5 C 200.026,350.525 196.36,351.192 192.5,351.5C 195.845,349.783 199.511,349.116 203.5,349.5 Z"/></g>
<g><path style="opacity:1" fill="#b1afac" d="M 712.5,351.5 C 749.004,351.168 785.337,351.502 821.5,352.5C 784.79,352.179 748.124,352.513 711.5,353.5C 711.833,352.833 712.167,352.167 712.5,351.5 Z"/></g>
<g><path style="opacity:1" fill="#888887" d="M 183.5,353.5 C 182.07,354.537 180.403,355.204 178.5,355.5C 179.635,353.787 181.302,353.12 183.5,353.5 Z"/></g>
<g><path style="opacity:1" fill="#fcfcfc" d="M 540.5,352.5 C 540.611,353.117 540.944,353.617 541.5,354C 544.482,354.498 547.482,354.665 550.5,354.5C 575.483,358.83 597.817,368.83 617.5,384.5C 630.271,396.591 640.271,410.591 647.5,426.5C 647.427,428.027 648.094,429.027 649.5,429.5C 650.696,432.421 651.696,435.421 652.5,438.5C 652.41,441.152 653.076,443.485 654.5,445.5C 655.913,448.219 656.58,451.219 656.5,454.5C 656.565,457.428 657.232,460.095 658.5,462.5C 659.253,474.819 659.586,487.152 659.5,499.5C 658.087,504.63 657.087,509.963 656.5,515.5C 656.167,518.167 655.833,520.833 655.5,523.5C 653.72,524.99 653.054,526.99 653.5,529.5C 642.865,563.442 621.865,588.775 590.5,605.5C 572.064,613.69 552.73,618.523 532.5,620C 494.167,620.667 455.833,620.667 417.5,620C 416.299,619.097 415.465,617.931 415,616.5C 414.333,529.5 414.333,442.5 415,355.5C 415.5,353.667 416.667,352.5 418.5,352C 459.189,351.19 499.856,351.356 540.5,352.5 Z"/></g>
<g><path style="opacity:1" fill="#9f9e9d" d="M 540.5,352.5 C 544.04,352.753 547.373,353.419 550.5,354.5C 547.482,354.665 544.482,354.498 541.5,354C 540.944,353.617 540.611,353.117 540.5,352.5 Z"/></g>
<g><path style="opacity:1" fill="#fdfdfd" d="M 821.5,352.5 C 828.891,353.514 836.225,354.848 843.5,356.5C 846.008,358.554 849.008,359.554 852.5,359.5C 877.283,368.972 895.449,385.638 907,409.5C 908.477,413.429 909.644,417.429 910.5,421.5C 910.41,424.152 911.076,426.485 912.5,428.5C 915.133,441.788 915.133,455.121 912.5,468.5C 911.076,470.515 910.41,472.848 910.5,475.5C 902.244,502.757 884.911,521.757 858.5,532.5C 856.62,532.229 855.287,532.896 854.5,534.5C 848.67,536.746 842.67,538.413 836.5,539.5C 834.102,539.259 832.102,539.926 830.5,541.5C 807.875,543.221 785.208,543.888 762.5,543.5C 762.981,568.59 762.481,593.59 761,618.5C 759.933,619.191 758.766,619.691 757.5,620C 742.837,620.5 728.17,620.667 713.5,620.5C 712.167,619.833 711.167,618.833 710.5,617.5C 710.172,529.459 710.505,441.459 711.5,353.5C 748.124,352.513 784.79,352.179 821.5,352.5 Z"/></g>
<g><path style="opacity:1" fill="#a7a7a6" d="M 176.5,355.5 C 172.936,357.919 168.936,359.586 164.5,360.5C 168.064,358.081 172.064,356.414 176.5,355.5 Z"/></g>
<g><path style="opacity:1" fill="#858483" d="M 279.5,357.5 C 281.027,357.427 282.027,358.094 282.5,359.5C 280.973,359.573 279.973,358.906 279.5,357.5 Z"/></g>
<g><path style="opacity:1" fill="#838382" d="M 843.5,356.5 C 846.746,357.054 849.746,358.054 852.5,359.5C 849.008,359.554 846.008,358.554 843.5,356.5 Z"/></g>
<g><path style="opacity:1" fill="#e7e7e6" d="M 711.5,353.5 C 710.505,441.459 710.172,529.459 710.5,617.5C 709.334,530.001 709.168,442.334 710,354.5C 710.383,353.944 710.883,353.611 711.5,353.5 Z"/></g>
<g><path style="opacity:1" fill="#b3b3b0" d="M 762.5,398.5 C 777.995,397.339 793.661,397.172 809.5,398C 813.872,398.421 818.205,399.088 822.5,400C 823.056,400.383 823.389,400.883 823.5,401.5C 818.189,400.669 812.855,399.835 807.5,399C 792.504,398.5 777.504,398.333 762.5,398.5 Z"/></g>
<g><path style="opacity:1" fill="#4c4c4a" d="M 236.5,398.5 C 225.815,398.39 215.148,398.723 204.5,399.5C 205.609,398.71 206.942,398.21 208.5,398C 218.009,397.176 227.343,397.342 236.5,398.5 Z"/></g>
<g><path style="opacity:1" fill="#a5a5a4" d="M 526.5,399.5 C 526.5,399.167 526.5,398.833 526.5,398.5C 529.187,398.336 531.854,398.503 534.5,399C 535.416,399.278 536.082,399.778 536.5,400.5C 533.193,399.949 529.86,399.616 526.5,399.5 Z"/></g>
<g><path style="opacity:1" fill="#0c0904" d="M 236.5,398.5 C 238.167,398.5 239.833,398.5 241.5,398.5C 243.515,399.924 245.848,400.59 248.5,400.5C 251.167,401.167 253.833,401.833 256.5,402.5C 256.973,403.906 257.973,404.573 259.5,404.5C 282.042,414.709 297.709,431.376 306.5,454.5C 306.41,457.152 307.076,459.485 308.5,461.5C 311.117,473.337 312.117,485.337 311.5,497.5C 310.017,501.95 309.017,506.617 308.5,511.5C 308.5,511.833 308.5,512.167 308.5,512.5C 306.926,514.102 306.259,516.102 306.5,518.5C 299.608,537.444 287.608,552.277 270.5,563C 264.178,566.186 257.845,569.019 251.5,571.5C 248.848,571.41 246.515,572.076 244.5,573.5C 240.106,573.844 235.772,574.51 231.5,575.5C 222.751,575.745 214.085,575.078 205.5,573.5C 190.002,570.386 176.335,563.553 164.5,553C 161.882,550.894 159.882,548.394 158.5,545.5C 155.675,540.126 152.508,534.793 149,529.5C 136.356,500.839 136.356,472.173 149,443.5C 151.667,439.5 154.333,435.5 157,431.5C 159.181,428.786 161.847,426.786 165,425.5C 165.44,423.134 165.94,420.801 166.5,418.5C 177.397,408.749 190.064,402.415 204.5,399.5C 215.148,398.723 225.815,398.39 236.5,398.5 Z"/></g>
<g><path style="opacity:1" fill="#8d8d8b" d="M 241.5,398.5 C 244.152,398.41 246.485,399.076 248.5,400.5C 245.848,400.59 243.515,399.924 241.5,398.5 Z"/></g>
<g><path style="opacity:1" fill="#494947" d="M 526.5,398.5 C 526.5,398.833 526.5,399.167 526.5,399.5C 507.167,399.5 487.833,399.5 468.5,399.5C 468.5,457.5 468.5,515.5 468.5,573.5C 487.167,573.5 505.833,573.5 524.5,573.5C 505.674,574.497 486.674,574.83 467.5,574.5C 467.5,515.833 467.5,457.167 467.5,398.5C 487.167,398.5 506.833,398.5 526.5,398.5 Z"/></g>
<g><path style="opacity:1" fill="#0c0904" d="M 526.5,399.5 C 529.86,399.616 533.193,399.949 536.5,400.5C 544.33,401.941 551.997,404.108 559.5,407C 566.002,410.75 572.335,414.75 578.5,419C 581.423,421.416 583.757,424.25 585.5,427.5C 590.577,435.639 594.91,444.306 598.5,453.5C 607.226,481.975 604.726,509.308 591,535.5C 587.632,539.594 584.798,543.927 582.5,548.5C 580.372,551.13 578.039,553.63 575.5,556C 568.727,560.384 561.727,564.217 554.5,567.5C 552.302,567.12 550.635,567.787 549.5,569.5C 541.248,571.35 532.915,572.684 524.5,573.5C 505.833,573.5 487.167,573.5 468.5,573.5C 468.5,515.5 468.5,457.5 468.5,399.5C 487.833,399.5 507.167,399.5 526.5,399.5 Z"/></g>
<g><path style="opacity:1" fill="#0c0905" d="M 762.5,398.5 C 777.504,398.333 792.504,398.5 807.5,399C 812.855,399.835 818.189,400.669 823.5,401.5C 823.833,401.5 824.167,401.5 824.5,401.5C 827.053,403.584 830.053,404.917 833.5,405.5C 846.076,412.319 854.409,422.652 858.5,436.5C 859.496,442.798 859.83,449.132 859.5,455.5C 858.076,457.515 857.41,459.848 857.5,462.5C 853.068,474.603 845.068,483.603 833.5,489.5C 829.851,490.267 826.518,491.6 823.5,493.5C 818.85,494.26 814.183,494.926 809.5,495.5C 793.833,495.5 778.167,495.5 762.5,495.5C 762.5,463.167 762.5,430.833 762.5,398.5 Z"/></g>
<g><path style="opacity:1" fill="#7e7d7d" d="M 256.5,402.5 C 258.027,402.427 259.027,403.094 259.5,404.5C 257.973,404.573 256.973,403.906 256.5,402.5 Z"/></g>
<g><path style="opacity:1" fill="#898785" d="M 824.5,401.5 C 827.947,402.083 830.947,403.416 833.5,405.5C 830.053,404.917 827.053,403.584 824.5,401.5 Z"/></g>
<g><path style="opacity:1" fill="#141413" d="M 114.5,396.5 C 110.343,402.137 106.176,407.804 102,413.5C 100.878,415.407 100.045,417.407 99.5,419.5C 98.0937,419.973 97.427,420.973 97.5,422.5C 91.8828,433.858 87.8828,445.858 85.5,458.5C 83.9261,460.102 83.2594,462.102 83.5,464.5C 82.4454,476.145 82.2787,487.811 83,499.5C 83.0894,504.766 83.9228,509.766 85.5,514.5C 86.625,522.41 88.625,530.077 91.5,537.5C 91.6596,539.153 92.3263,540.486 93.5,541.5C 97.2882,551.746 102.622,561.08 109.5,569.5C 107.61,569.703 106.11,569.037 105,567.5C 75.3858,521.344 71.7191,473.344 94,423.5C 98.9388,414.899 104.272,406.565 110,398.5C 111.11,396.963 112.61,396.297 114.5,396.5 Z"/></g>
<g><path style="opacity:1" fill="#8e8f8c" d="M 345.5,412.5 C 346.906,412.973 347.573,413.973 347.5,415.5C 346.094,415.027 345.427,414.027 345.5,412.5 Z"/></g>
<g><path style="opacity:1" fill="#161515" d="M 590.5,605.5 C 621.865,588.775 642.865,563.442 653.5,529.5C 654.738,527.786 655.405,525.786 655.5,523.5C 655.833,520.833 656.167,518.167 656.5,515.5C 657.222,515.082 657.722,514.416 658,513.5C 658.829,508.863 659.329,504.196 659.5,499.5C 659.586,487.152 659.253,474.819 658.5,462.5C 658.706,459.505 658.04,456.838 656.5,454.5C 656.58,451.219 655.913,448.219 654.5,445.5C 654.59,442.848 653.924,440.515 652.5,438.5C 651.696,435.421 650.696,432.421 649.5,429.5C 649.573,427.973 648.906,426.973 647.5,426.5C 640.271,410.591 630.271,396.591 617.5,384.5C 617.897,383.475 618.563,383.308 619.5,384C 653.439,417.404 667.105,457.737 660.5,505C 657.056,541.88 640.723,571.88 611.5,595C 607.5,597.667 603.5,600.333 599.5,603C 596.582,604.15 593.582,604.983 590.5,605.5 Z"/></g>
<g><path style="opacity:1" fill="#918f8c" d="M 99.5,419.5 C 99.573,421.027 98.9063,422.027 97.5,422.5C 97.427,420.973 98.0937,419.973 99.5,419.5 Z"/></g>
<g><path style="opacity:1" fill="#878685" d="M 910.5,421.5 C 911.924,423.515 912.59,425.848 912.5,428.5C 911.076,426.485 910.41,424.152 910.5,421.5 Z"/></g>
<g><path style="opacity:1" fill="#6a6966" d="M 647.5,426.5 C 648.906,426.973 649.573,427.973 649.5,429.5C 648.094,429.027 647.427,428.027 647.5,426.5 Z"/></g>
<g><path style="opacity:1" fill="#161515" d="M 585.5,427.5 C 595.491,437.817 601.491,450.15 603.5,464.5C 603.753,468.04 604.419,471.373 605.5,474.5C 607.451,496.479 603.284,517.145 593,536.5C 590.189,541.134 586.689,545.134 582.5,548.5C 584.798,543.927 587.632,539.594 591,535.5C 604.726,509.308 607.226,481.975 598.5,453.5C 594.91,444.306 590.577,435.639 585.5,427.5 Z"/></g>
<g><path style="opacity:1" fill="#888683" d="M 652.5,438.5 C 653.924,440.515 654.59,442.848 654.5,445.5C 653.076,443.485 652.41,441.152 652.5,438.5 Z"/></g>
<g><path style="opacity:1" fill="#1a1a19" d="M 166.5,418.5 C 165.94,420.801 165.44,423.134 165,425.5C 161.847,426.786 159.181,428.786 157,431.5C 154.333,435.5 151.667,439.5 149,443.5C 136.356,472.173 136.356,500.839 149,529.5C 152.508,534.793 155.675,540.126 158.5,545.5C 155.448,542.424 152.614,539.09 150,535.5C 145.283,527.271 141.783,518.604 139.5,509.5C 139.59,506.848 138.924,504.515 137.5,502.5C 132.508,469.207 142.174,441.207 166.5,418.5 Z"/></g>
<g><path style="opacity:1" fill="#6f6e6d" d="M 306.5,454.5 C 307.924,456.515 308.59,458.848 308.5,461.5C 307.076,459.485 306.41,457.152 306.5,454.5 Z"/></g>
<g><path style="opacity:1" fill="#6a6865" d="M 656.5,454.5 C 658.04,456.838 658.706,459.505 658.5,462.5C 657.232,460.095 656.565,457.428 656.5,454.5 Z"/></g>
<g><path style="opacity:1" fill="#a3a2a0" d="M 859.5,455.5 C 859.59,458.152 858.924,460.485 857.5,462.5C 857.41,459.848 858.076,457.515 859.5,455.5 Z"/></g>
<g><path style="opacity:1" fill="#666663" d="M 85.5,458.5 C 85.4828,460.565 85.1495,462.565 84.5,464.5C 84.1667,464.5 83.8333,464.5 83.5,464.5C 83.2594,462.102 83.9261,460.102 85.5,458.5 Z"/></g>
<g><path style="opacity:1" fill="#8d8d8c" d="M 603.5,464.5 C 604.222,464.918 604.722,465.584 605,466.5C 605.497,469.146 605.664,471.813 605.5,474.5C 604.419,471.373 603.753,468.04 603.5,464.5 Z"/></g>
<g><path style="opacity:1" fill="#848383" d="M 363.5,460.5 C 365.136,464.21 365.802,468.21 365.5,472.5C 363.864,468.79 363.198,464.79 363.5,460.5 Z"/></g>
<g><path style="opacity:1" fill="#73716f" d="M 912.5,468.5 C 912.59,471.152 911.924,473.485 910.5,475.5C 910.41,472.848 911.076,470.515 912.5,468.5 Z"/></g>
<g><path style="opacity:1" fill="#b3b3af" d="M 83.5,464.5 C 83.8333,464.5 84.1667,464.5 84.5,464.5C 83.0747,481.202 83.4081,497.868 85.5,514.5C 83.9228,509.766 83.0894,504.766 83,499.5C 82.2787,487.811 82.4454,476.145 83.5,464.5 Z"/></g>
<g><path style="opacity:1" fill="#9f9f9e" d="M 833.5,489.5 C 830.691,491.897 827.358,493.23 823.5,493.5C 826.518,491.6 829.851,490.267 833.5,489.5 Z"/></g>
<g><path style="opacity:1" fill="#80807d" d="M 762.5,398.5 C 762.5,430.833 762.5,463.167 762.5,495.5C 778.167,495.5 793.833,495.5 809.5,495.5C 793.675,496.496 777.675,496.83 761.5,496.5C 761.168,463.662 761.502,430.996 762.5,398.5 Z"/></g>
<g><path style="opacity:1" fill="#928e8c" d="M 137.5,502.5 C 138.924,504.515 139.59,506.848 139.5,509.5C 138.076,507.485 137.41,505.152 137.5,502.5 Z"/></g>
<g><path style="opacity:1" fill="#83827f" d="M 659.5,499.5 C 659.329,504.196 658.829,508.863 658,513.5C 657.722,514.416 657.222,515.082 656.5,515.5C 657.087,509.963 658.087,504.63 659.5,499.5 Z"/></g>
<g><path style="opacity:1" fill="#c8c7c6" d="M 311.5,497.5 C 311.579,501.202 311.246,504.868 310.5,508.5C 310.36,510.03 309.693,511.03 308.5,511.5C 309.017,506.617 310.017,501.95 311.5,497.5 Z"/></g>
<g><path style="opacity:1" fill="#979796" d="M 308.5,512.5 C 308.741,514.898 308.074,516.898 306.5,518.5C 306.259,516.102 306.926,514.102 308.5,512.5 Z"/></g>
<g><path style="opacity:1" fill="#161615" d="M 713.5,620.5 C 728.17,620.667 742.837,620.5 757.5,620C 758.766,619.691 759.933,619.191 761,618.5C 762.481,593.59 762.981,568.59 762.5,543.5C 785.208,543.888 807.875,543.221 830.5,541.5C 832.898,541.741 834.898,541.074 836.5,539.5C 842.67,538.413 848.67,536.746 854.5,534.5C 856.153,534.34 857.486,533.674 858.5,532.5C 884.911,521.757 902.244,502.757 910.5,475.5C 911.924,473.485 912.59,471.152 912.5,468.5C 915.133,455.121 915.133,441.788 912.5,428.5C 912.59,425.848 911.924,423.515 910.5,421.5C 909.644,417.429 908.477,413.429 907,409.5C 895.449,385.638 877.283,368.972 852.5,359.5C 849.746,358.054 846.746,357.054 843.5,356.5C 836.225,354.848 828.891,353.514 821.5,352.5C 785.337,351.502 749.004,351.168 712.5,351.5C 711.262,351.19 711.262,350.69 712.5,350C 749.5,349.333 786.5,349.333 823.5,350C 848.483,353.492 870.483,363.492 889.5,380C 910.861,403.218 919.695,430.718 916,462.5C 909.442,497.382 889.942,521.882 857.5,536C 846.756,540.014 835.756,543.014 824.5,545C 804.524,546.315 784.524,546.815 764.5,546.5C 764.421,547.93 764.754,549.264 765.5,550.5C 764.677,572.79 764.177,595.124 764,617.5C 762.978,618.354 762.145,619.354 761.5,620.5C 745.338,621.827 729.338,621.827 713.5,620.5 Z"/></g>
<g><path style="opacity:1" fill="#9c9c9b" d="M 655.5,523.5 C 655.405,525.786 654.738,527.786 653.5,529.5C 653.054,526.99 653.72,524.99 655.5,523.5 Z"/></g>
<g><path style="opacity:1" fill="#8e8e8d" d="M 361.5,523.5 C 361.405,525.786 360.738,527.786 359.5,529.5C 359.259,527.102 359.926,525.102 361.5,523.5 Z"/></g>
<g><path style="opacity:1" fill="#7f7e7e" d="M 858.5,532.5 C 857.486,533.674 856.153,534.34 854.5,534.5C 855.287,532.896 856.62,532.229 858.5,532.5 Z"/></g>
<g><path style="opacity:1" fill="#92918f" d="M 357.5,536.5 C 357.34,538.153 356.674,539.486 355.5,540.5C 355.229,538.62 355.896,537.287 357.5,536.5 Z"/></g>
<g><path style="opacity:1" fill="#929191" d="M 91.5,537.5 C 93.1042,538.287 93.7709,539.62 93.5,541.5C 92.3263,540.486 91.6596,539.153 91.5,537.5 Z"/></g>
<g><path style="opacity:1" fill="#515150" d="M 836.5,539.5 C 834.898,541.074 832.898,541.741 830.5,541.5C 832.102,539.926 834.102,539.259 836.5,539.5 Z"/></g>
<g><path style="opacity:1" fill="#8a8988" d="M 554.5,567.5 C 553.07,568.537 551.403,569.204 549.5,569.5C 550.635,567.787 552.302,567.12 554.5,567.5 Z"/></g>
<g><path style="opacity:1" fill="#919190" d="M 251.5,571.5 C 249.485,572.924 247.152,573.59 244.5,573.5C 246.515,572.076 248.848,571.41 251.5,571.5 Z"/></g>
<g><path style="opacity:1" fill="#cfcfcd" d="M 205.5,573.5 C 214.085,575.078 222.751,575.745 231.5,575.5C 225.681,576.653 219.681,576.819 213.5,576C 210.478,575.902 207.811,575.068 205.5,573.5 Z"/></g>
<g><path style="opacity:1" fill="#171616" d="M 338.5,571.5 C 338.657,572.873 338.49,574.207 338,575.5C 303.314,614.089 259.814,630.922 207.5,626C 174.442,622.462 145.942,609.295 122,586.5C 121.517,585.552 121.351,584.552 121.5,583.5C 140.59,602.882 163.59,615.215 190.5,620.5C 194.567,622.054 198.9,622.72 203.5,622.5C 209.677,624.046 216.011,624.713 222.5,624.5C 231.56,624.522 240.56,623.855 249.5,622.5C 254.45,622.23 259.117,621.23 263.5,619.5C 293.842,611.83 318.842,595.83 338.5,571.5 Z"/></g>
<g><path style="opacity:1" fill="#b9b7b5" d="M 190.5,620.5 C 195.1,620.28 199.433,620.946 203.5,622.5C 198.9,622.72 194.567,622.054 190.5,620.5 Z"/></g>
<g><path style="opacity:1" fill="#7c7c7a" d="M 263.5,619.5 C 259.117,621.23 254.45,622.23 249.5,622.5C 253.883,620.77 258.55,619.77 263.5,619.5 Z"/></g>
<g><path style="opacity:1" fill="#181817" d="M 815.5,728.5 C 821.843,718.795 824.01,708.129 822,696.5C 821.153,694.807 820.32,693.14 819.5,691.5C 819.573,689.973 818.906,688.973 817.5,688.5C 814.033,682.364 809.033,678.03 802.5,675.5C 802.027,674.094 801.027,673.427 799.5,673.5C 792.025,672.257 784.692,672.257 777.5,673.5C 774.284,673.345 771.617,674.345 769.5,676.5C 755.131,684.579 749.297,696.912 752,713.5C 753.304,718.923 755.47,723.923 758.5,728.5C 757.178,728.67 756.011,728.337 755,727.5C 743.199,702.235 749.699,683.402 774.5,671C 796.544,666.008 812.711,673.508 823,693.5C 824.523,701.102 824.856,708.768 824,716.5C 823.33,722.218 820.497,726.218 815.5,728.5 Z"/></g>
<g><path style="opacity:1" fill="#f2f2f2" d="M 136.5,684.5 C 135.319,682.933 133.653,682.099 131.5,682C 125.984,681.183 120.65,681.349 115.5,682.5C 107.074,684.253 101.407,689.253 98.5,697.5C 97.0483,699.848 96.3817,702.514 96.5,705.5C 96.5068,707.369 96.8401,709.036 97.5,710.5C 98.8043,720.463 104.138,727.13 113.5,730.5C 113.611,731.117 113.944,731.617 114.5,732C 120.5,732.667 126.5,732.667 132.5,732C 133.056,731.617 133.389,731.117 133.5,730.5C 139.372,726.715 143.038,728.215 144.5,735C 141.164,738.125 137.164,740.125 132.5,741C 109.346,745.44 94.3464,736.606 87.5,714.5C 87.3017,707.076 87.9683,699.743 89.5,692.5C 98.0101,675.757 111.677,668.924 130.5,672C 136.112,672.806 140.779,675.139 144.5,679C 143.38,680.737 142.38,682.571 141.5,684.5C 139.833,685.666 138.166,685.666 136.5,684.5 Z"/></g>
<g><path style="opacity:1" fill="#f4f4f4" d="M 209.5,673.5 C 211.033,675.245 213.033,676.245 215.5,676.5C 222.587,680.352 227.587,686.018 230.5,693.5C 231.341,700.465 231.674,707.465 231.5,714.5C 229.67,723.996 224.67,731.33 216.5,736.5C 214.973,736.427 213.973,737.094 213.5,738.5C 194.845,745.96 179.345,741.96 167,726.5C 165.795,723.438 164.628,720.438 163.5,717.5C 163.295,709.133 163.629,700.8 164.5,692.5C 174.26,674.468 189.26,668.134 209.5,673.5 Z"/></g>
<g><path style="opacity:1" fill="#a09f9f" d="M 431.5,672.5 C 429.485,673.924 427.152,674.59 424.5,674.5C 426.515,673.076 428.848,672.41 431.5,672.5 Z"/></g>
<g><path style="opacity:1" fill="#f3f3f2" d="M 431.5,741.5 C 429.898,739.926 427.898,739.259 425.5,739.5C 416.197,735.861 409.53,729.528 405.5,720.5C 404.167,711.5 404.167,702.5 405.5,693.5C 408.964,684.273 415.297,677.94 424.5,674.5C 427.152,674.59 429.485,673.924 431.5,672.5C 443.382,670.316 454.049,673.149 463.5,681C 475.105,693.099 477.605,706.933 471,722.5C 462.103,737.318 448.936,743.651 431.5,741.5 Z"/></g>
<g><path style="opacity:1" fill="#f3f3f2" d="M 545.5,683.5 C 545.427,685.027 546.094,686.027 547.5,686.5C 551.966,700.208 547.966,710.708 535.5,718C 539.279,724.112 543.445,729.945 548,735.5C 549.009,737.025 549.509,738.692 549.5,740.5C 545.818,740.665 542.152,740.499 538.5,740C 534.167,733.667 529.833,727.333 525.5,721C 520.177,720.501 514.844,720.334 509.5,720.5C 509.5,727.167 509.5,733.833 509.5,740.5C 506.167,740.5 502.833,740.5 499.5,740.5C 499.5,717.833 499.5,695.167 499.5,672.5C 508.839,672.334 518.173,672.5 527.5,673C 535.022,673.997 541.022,677.497 545.5,683.5 Z"/></g>
<g><path style="opacity:1" fill="#f8f8f8" d="M 693.5,681.5 C 686.167,681.5 678.833,681.5 671.5,681.5C 671.5,701.167 671.5,720.833 671.5,740.5C 668.5,740.5 665.5,740.5 662.5,740.5C 662.5,720.833 662.5,701.167 662.5,681.5C 654.833,681.5 647.167,681.5 639.5,681.5C 638.183,678.77 638.183,675.937 639.5,673C 657.83,672.5 676.164,672.333 694.5,672.5C 694.81,675.713 694.477,678.713 693.5,681.5 Z"/></g>
<g><path style="opacity:1" fill="#f3f3f2" d="M 799.5,673.5 C 799.973,674.906 800.973,675.573 802.5,675.5C 809.033,678.03 814.033,682.364 817.5,688.5C 817.427,690.027 818.094,691.027 819.5,691.5C 820.32,693.14 821.153,694.807 822,696.5C 824.01,708.129 821.843,718.795 815.5,728.5C 803.361,741.7 788.695,745.2 771.5,739C 766.364,736.44 762.031,732.94 758.5,728.5C 755.47,723.923 753.304,718.923 752,713.5C 749.297,696.912 755.131,684.579 769.5,676.5C 772.397,675.871 775.064,674.871 777.5,673.5C 784.692,672.257 792.025,672.257 799.5,673.5 Z"/></g>
<g><path style="opacity:1" fill="#f5f5f5" d="M 893.5,719.5 C 893.694,721.912 895.027,722.912 897.5,722.5C 897.5,706.167 897.5,689.833 897.5,673.5C 900.287,672.523 903.287,672.19 906.5,672.5C 906.5,695.5 906.5,718.5 906.5,741.5C 904.076,741.808 901.743,741.474 899.5,740.5C 886.114,724.789 872.781,709.122 859.5,693.5C 859.44,692.957 859.107,692.624 858.5,692.5C 857.501,708.486 857.167,724.486 857.5,740.5C 854.167,740.5 850.833,740.5 847.5,740.5C 847.5,717.833 847.5,695.167 847.5,672.5C 850.685,672.02 853.519,672.686 856,674.5C 868.985,689.161 881.485,704.161 893.5,719.5 Z"/></g>
<g><path style="opacity:1" fill="#f2f2f2" d="M 258.5,672.5 C 267.839,672.334 277.173,672.5 286.5,673C 303.897,676.618 310.563,687.118 306.5,704.5C 305.573,706.113 304.739,707.779 304,709.5C 300.887,712.625 297.72,715.625 294.5,718.5C 299.705,725.596 304.371,732.929 308.5,740.5C 304.445,740.824 300.445,740.491 296.5,739.5C 292.5,733.5 288.5,727.5 284.5,721.5C 278.872,720.505 273.206,720.171 267.5,720.5C 267.5,727.167 267.5,733.833 267.5,740.5C 264.167,740.5 260.833,740.5 257.5,740.5C 257.178,717.758 257.511,695.092 258.5,672.5 Z"/></g>
<g><path style="opacity:1" fill="#f5f5f4" d="M 380.5,683.5 C 380.427,685.027 381.094,686.027 382.5,686.5C 386.639,697.022 384.639,706.188 376.5,714C 373.036,716.047 369.37,717.713 365.5,719C 358.508,719.5 351.508,719.666 344.5,719.5C 344.5,726.5 344.5,733.5 344.5,740.5C 341.167,740.5 337.833,740.5 334.5,740.5C 334.5,717.833 334.5,695.167 334.5,672.5C 343.839,672.334 353.173,672.5 362.5,673C 369.946,674.216 375.946,677.716 380.5,683.5 Z"/></g>
<g><path style="opacity:1" fill="#f3f3f3" d="M 596.5,672.5 C 599.119,672.232 601.619,672.565 604,673.5C 613.406,695.53 622.906,717.53 632.5,739.5C 628.878,740.659 625.211,740.825 621.5,740C 619.942,735.448 617.942,731.115 615.5,727C 604.833,726.333 594.167,726.333 583.5,727C 581.407,731.106 579.407,735.273 577.5,739.5C 574.232,740.487 570.898,740.82 567.5,740.5C 575.996,717.349 585.663,694.682 596.5,672.5 Z"/></g>
<g><path style="opacity:1" fill="#878787" d="M 799.5,673.5 C 801.027,673.427 802.027,674.094 802.5,675.5C 800.973,675.573 799.973,674.906 799.5,673.5 Z"/></g>
<g><path style="opacity:1" fill="#706f6f" d="M 209.5,673.5 C 211.967,673.755 213.967,674.755 215.5,676.5C 213.033,676.245 211.033,675.245 209.5,673.5 Z"/></g>
<g><path style="opacity:1" fill="#c4c3c0" d="M 716.5,672.5 C 719.833,672.5 723.167,672.5 726.5,672.5C 726.5,695.5 726.5,718.5 726.5,741.5C 723.167,741.5 719.833,741.5 716.5,741.5C 716.5,718.5 716.5,695.5 716.5,672.5 Z"/></g>
<g><path style="opacity:1" fill="#fefefe" d="M 717.5,673.5 C 720.167,673.5 722.833,673.5 725.5,673.5C 725.5,695.833 725.5,718.167 725.5,740.5C 722.833,740.5 720.167,740.5 717.5,740.5C 717.5,718.167 717.5,695.833 717.5,673.5 Z"/></g>
<g><path style="opacity:1" fill="#a9a9a8" d="M 777.5,673.5 C 775.064,674.871 772.397,675.871 769.5,676.5C 771.617,674.345 774.284,673.345 777.5,673.5 Z"/></g>
<g><path style="opacity:1" fill="#bebebb" d="M 897.5,673.5 C 897.5,689.833 897.5,706.167 897.5,722.5C 895.027,722.912 893.694,721.912 893.5,719.5C 894.458,719.953 895.292,720.619 896,721.5C 896.169,705.328 896.669,689.328 897.5,673.5 Z"/></g>
<g><path style="opacity:1" fill="#424140" d="M 115.5,682.5 C 120.65,681.349 125.984,681.183 131.5,682C 133.653,682.099 135.319,682.933 136.5,684.5C 129.632,682.775 122.632,682.108 115.5,682.5 Z"/></g>
<g><path style="opacity:1" fill="#5d5c59" d="M 509.5,682.5 C 515.319,681.347 521.319,681.181 527.5,682C 528.416,682.278 529.082,682.778 529.5,683.5C 522.877,682.62 516.211,682.287 509.5,682.5 Z"/></g>
<g><path style="opacity:1" fill="#575755" d="M 193.5,681.5 C 191.064,682.871 188.397,683.871 185.5,684.5C 187.617,682.345 190.284,681.345 193.5,681.5 Z"/></g>
<g><path style="opacity:1" fill="#6d6d6c" d="M 434.5,681.5 C 432.064,682.871 429.397,683.871 426.5,684.5C 428.617,682.345 431.284,681.345 434.5,681.5 Z"/></g>
<g><path style="opacity:1" fill="#0e0b07" d="M 193.5,681.5 C 206.416,680.451 215.416,685.784 220.5,697.5C 221.392,702.438 221.726,707.438 221.5,712.5C 216.815,728.359 206.148,734.859 189.5,732C 172.718,723.195 168.218,710.028 176,692.5C 178.558,688.977 181.725,686.31 185.5,684.5C 188.397,683.871 191.064,682.871 193.5,681.5 Z"/></g>
<g><path style="opacity:1" fill="#0b0905" d="M 285.5,682.5 C 289.844,683.343 293.177,685.676 295.5,689.5C 296.324,692.764 296.658,696.098 296.5,699.5C 295.005,705.912 291.005,709.579 284.5,710.5C 279.167,710.5 273.833,710.5 268.5,710.5C 268.5,701.167 268.5,691.833 268.5,682.5C 274.167,682.5 279.833,682.5 285.5,682.5 Z"/></g>
<g><path style="opacity:1" fill="#979795" d="M 360.5,682.5 C 355.167,682.5 349.833,682.5 344.5,682.5C 344.5,691.833 344.5,701.167 344.5,710.5C 343.506,701.014 343.173,691.348 343.5,681.5C 349.358,681.178 355.025,681.511 360.5,682.5 Z"/></g>
<g><path style="opacity:1" fill="#0c0a06" d="M 360.5,682.5 C 372.839,685.512 376.339,692.846 371,704.5C 368.88,707.43 366.047,709.263 362.5,710C 356.509,710.499 350.509,710.666 344.5,710.5C 344.5,701.167 344.5,691.833 344.5,682.5C 349.833,682.5 355.167,682.5 360.5,682.5 Z"/></g>
<g><path style="opacity:1" fill="#0d0b06" d="M 434.5,681.5 C 447.98,680.651 457.48,686.318 463,698.5C 464.569,707.027 463.235,715.027 459,722.5C 454.905,727.445 449.738,730.445 443.5,731.5C 438.77,731.717 434.103,731.383 429.5,730.5C 418.841,725.975 413.507,717.808 413.5,706C 413.892,696.371 418.226,689.205 426.5,684.5C 429.397,683.871 432.064,682.871 434.5,681.5 Z"/></g>
<g><path style="opacity:1" fill="#0d0b07" d="M 509.5,682.5 C 516.211,682.287 522.877,682.62 529.5,683.5C 538.915,688.014 541.082,695.014 536,704.5C 533.88,707.43 531.047,709.263 527.5,710C 521.509,710.499 515.509,710.666 509.5,710.5C 509.5,701.167 509.5,691.833 509.5,682.5 Z"/></g>
<g><path style="opacity:1" fill="#787876" d="M 693.5,681.5 C 686.687,682.491 679.687,682.825 672.5,682.5C 672.83,702.007 672.497,721.341 671.5,740.5C 671.5,720.833 671.5,701.167 671.5,681.5C 678.833,681.5 686.167,681.5 693.5,681.5 Z"/></g>
<g><path style="opacity:1" fill="#0e0c07" d="M 808.5,693.5 C 808.427,695.027 809.094,696.027 810.5,696.5C 815.655,714.506 809.322,726.339 791.5,732C 776.745,733.909 767.245,727.742 763,713.5C 759.711,698.24 765.211,687.74 779.5,682C 792.051,679.012 801.718,682.845 808.5,693.5 Z"/></g>
<g><path style="opacity:1" fill="#7b7b78" d="M 380.5,683.5 C 381.906,683.973 382.573,684.973 382.5,686.5C 381.094,686.027 380.427,685.027 380.5,683.5 Z"/></g>
<g><path style="opacity:1" fill="#81807e" d="M 545.5,683.5 C 546.906,683.973 547.573,684.973 547.5,686.5C 546.094,686.027 545.427,685.027 545.5,683.5 Z"/></g>
<g><path style="opacity:1" fill="#73726e" d="M 285.5,682.5 C 279.833,682.5 274.167,682.5 268.5,682.5C 268.5,691.833 268.5,701.167 268.5,710.5C 273.833,710.5 279.167,710.5 284.5,710.5C 279.025,711.489 273.358,711.822 267.5,711.5C 267.5,701.5 267.5,691.5 267.5,681.5C 273.69,681.177 279.69,681.51 285.5,682.5 Z"/></g>
<g><path style="opacity:1" fill="#a5a3a3" d="M 639.5,681.5 C 647.167,681.5 654.833,681.5 662.5,681.5C 662.5,701.167 662.5,720.833 662.5,740.5C 661.503,721.341 661.17,702.007 661.5,682.5C 653.981,682.825 646.648,682.492 639.5,681.5 Z"/></g>
<g><path style="opacity:1" fill="#8d8d8c" d="M 817.5,688.5 C 818.906,688.973 819.573,689.973 819.5,691.5C 818.094,691.027 817.427,690.027 817.5,688.5 Z"/></g>
<g><path style="opacity:1" fill="#858585" d="M 295.5,689.5 C 296.117,689.611 296.617,689.944 297,690.5C 297.805,693.696 297.638,696.696 296.5,699.5C 296.658,696.098 296.324,692.764 295.5,689.5 Z"/></g>
<g><path style="opacity:1" fill="#70706f" d="M 808.5,693.5 C 809.906,693.973 810.573,694.973 810.5,696.5C 809.094,696.027 808.427,695.027 808.5,693.5 Z"/></g>
<g><path style="opacity:1" fill="#11100e" d="M 603.5,697.5 C 603.427,699.027 604.094,700.027 605.5,700.5C 606.954,706.068 608.954,711.402 611.5,716.5C 607.681,717.166 603.681,717.499 599.5,717.5C 595.107,717.491 591.107,716.824 587.5,715.5C 591.162,706.851 594.829,698.184 598.5,689.5C 599.167,688.167 599.833,688.167 600.5,689.5C 601.9,692.035 602.9,694.702 603.5,697.5 Z"/></g>
<g><path style="opacity:1" fill="#4c4c4b" d="M 859.5,693.5 C 858.833,709.167 858.167,724.833 857.5,740.5C 857.167,724.486 857.501,708.486 858.5,692.5C 859.107,692.624 859.44,692.957 859.5,693.5 Z"/></g>
<g><path style="opacity:1" fill="#838382" d="M 603.5,697.5 C 604.906,697.973 605.573,698.973 605.5,700.5C 604.094,700.027 603.427,699.027 603.5,697.5 Z"/></g>
<g><path style="opacity:1" fill="#9e9e9d" d="M 98.5,697.5 C 97.8005,701.798 97.4672,706.131 97.5,710.5C 96.8401,709.036 96.5068,707.369 96.5,705.5C 96.3817,702.514 97.0483,699.848 98.5,697.5 Z"/></g>
<g><path style="opacity:1" fill="#bebdbb" d="M 230.5,693.5 C 232.055,697.203 232.722,701.203 232.5,705.5C 232.498,708.686 232.165,711.686 231.5,714.5C 231.674,707.465 231.341,700.465 230.5,693.5 Z"/></g>
<g><path style="opacity:1" fill="#a7a6a5" d="M 405.5,693.5 C 404.167,702.5 404.167,711.5 405.5,720.5C 401.618,711.483 401.618,702.483 405.5,693.5 Z"/></g>
<g><path style="opacity:1" fill="#989695" d="M 89.5,692.5 C 87.9683,699.743 87.3017,707.076 87.5,714.5C 86.3493,709.35 86.1826,704.016 87,698.5C 87.5662,696.277 88.3995,694.277 89.5,692.5 Z"/></g>
<g><path style="opacity:1" fill="#cbcbc9" d="M 164.5,692.5 C 163.629,700.8 163.295,709.133 163.5,717.5C 161.588,711.419 161.088,705.086 162,698.5C 162.566,696.277 163.4,694.277 164.5,692.5 Z"/></g>
<g><path style="opacity:1" fill="#646462" d="M 220.5,697.5 C 221.117,697.611 221.617,697.944 222,698.5C 222.815,703.352 222.648,708.019 221.5,712.5C 221.726,707.438 221.392,702.438 220.5,697.5 Z"/></g>
<g><path style="opacity:1" fill="#a19f9f" d="M 587.5,715.5 C 591.107,716.824 595.107,717.491 599.5,717.5C 603.681,717.499 607.681,717.166 611.5,716.5C 612.043,716.56 612.376,716.893 612.5,717.5C 603.859,718.498 595.192,718.831 586.5,718.5C 586.263,717.209 586.596,716.209 587.5,715.5 Z"/></g>
<g><path style="opacity:1" fill="#807f7f" d="M 113.5,730.5 C 120.167,731.833 126.833,731.833 133.5,730.5C 133.389,731.117 133.056,731.617 132.5,732C 126.5,732.667 120.5,732.667 114.5,732C 113.944,731.617 113.611,731.117 113.5,730.5 Z"/></g>
<g><path style="opacity:1" fill="#6b6a69" d="M 429.5,730.5 C 434.103,731.383 438.77,731.717 443.5,731.5C 439.354,732.647 435.02,732.814 430.5,732C 429.944,731.617 429.611,731.117 429.5,730.5 Z"/></g>
<g><path style="opacity:1" fill="#656667" d="M 216.5,736.5 C 216.027,737.906 215.027,738.573 213.5,738.5C 213.973,737.094 214.973,736.427 216.5,736.5 Z"/></g>
<g><path style="opacity:1" fill="#7f7e7d" d="M 425.5,739.5 C 427.898,739.259 429.898,739.926 431.5,741.5C 429.102,741.741 427.102,741.074 425.5,739.5 Z"/></g>
</svg>
